<mxfile host="app.diagrams.net" modified="2023-07-04T03:17:27.754Z" agent="Mozilla/5.0 (Macintosh; Intel Mac OS X 10_15_7) AppleWebKit/537.36 (KHTML, like Gecko) Chrome/114.0.0.0 Safari/537.36" etag="b_TC_ZQsq-h3I9-vtgTY" version="21.5.2" type="github">
  <diagram name="第 1 页" id="Y6c7LogfhmJSzpeoHGJV">
    <mxGraphModel dx="795" dy="468" grid="1" gridSize="10" guides="1" tooltips="1" connect="1" arrows="1" fold="1" page="1" pageScale="1" pageWidth="827" pageHeight="1169" math="0" shadow="0">
      <root>
        <mxCell id="0" />
        <mxCell id="1" parent="0" />
        <mxCell id="2pj6zwEHegQCQvlmWKqd-1" value="教育" style="swimlane;childLayout=stackLayout;resizeParent=1;resizeParentMax=0;startSize=20;html=1;" vertex="1" parent="1">
          <mxGeometry x="170" y="150" width="480" height="330" as="geometry" />
        </mxCell>
        <mxCell id="2pj6zwEHegQCQvlmWKqd-2" value="云羲搭" style="swimlane;startSize=20;html=1;" vertex="1" parent="2pj6zwEHegQCQvlmWKqd-1">
          <mxGeometry y="20" width="120" height="310" as="geometry" />
        </mxCell>
        <mxCell id="2pj6zwEHegQCQvlmWKqd-19" value="应用" style="strokeWidth=1;html=1;shape=mxgraph.flowchart.terminator;whiteSpace=wrap;" vertex="1" parent="2pj6zwEHegQCQvlmWKqd-2">
          <mxGeometry x="30" y="190" width="60" height="30" as="geometry" />
        </mxCell>
        <mxCell id="2pj6zwEHegQCQvlmWKqd-3" value="对接服务" style="swimlane;startSize=20;html=1;" vertex="1" parent="2pj6zwEHegQCQvlmWKqd-1">
          <mxGeometry x="120" y="20" width="130" height="310" as="geometry" />
        </mxCell>
        <mxCell id="2pj6zwEHegQCQvlmWKqd-14" value="统一登录" style="strokeWidth=1;html=1;shape=mxgraph.flowchart.terminator;whiteSpace=wrap;" vertex="1" parent="2pj6zwEHegQCQvlmWKqd-3">
          <mxGeometry x="20" y="190" width="60" height="30" as="geometry" />
        </mxCell>
        <mxCell id="2pj6zwEHegQCQvlmWKqd-31" value="云羲搭有统一配置管理的租户，维护授权的应用信息，需要账号密码，找对应的人员提供" style="shape=callout;whiteSpace=wrap;html=1;perimeter=calloutPerimeter;fillColor=#fff2cc;strokeColor=#d6b656;" vertex="1" parent="2pj6zwEHegQCQvlmWKqd-3">
          <mxGeometry x="2.5" y="70" width="125" height="100" as="geometry" />
        </mxCell>
        <mxCell id="2pj6zwEHegQCQvlmWKqd-4" value="教育平台" style="swimlane;startSize=20;html=1;" vertex="1" parent="2pj6zwEHegQCQvlmWKqd-1">
          <mxGeometry x="250" y="20" width="110" height="310" as="geometry" />
        </mxCell>
        <mxCell id="2pj6zwEHegQCQvlmWKqd-11" style="edgeStyle=orthogonalEdgeStyle;rounded=0;orthogonalLoop=1;jettySize=auto;html=1;entryX=0.5;entryY=0;entryDx=0;entryDy=0;entryPerimeter=0;" edge="1" parent="2pj6zwEHegQCQvlmWKqd-4" source="2pj6zwEHegQCQvlmWKqd-7" target="2pj6zwEHegQCQvlmWKqd-8">
          <mxGeometry relative="1" as="geometry" />
        </mxCell>
        <mxCell id="2pj6zwEHegQCQvlmWKqd-7" value="" style="shape=actor;whiteSpace=wrap;html=1;" vertex="1" parent="2pj6zwEHegQCQvlmWKqd-4">
          <mxGeometry x="42.5" y="30" width="25" height="30" as="geometry" />
        </mxCell>
        <mxCell id="2pj6zwEHegQCQvlmWKqd-8" value="登录插件" style="strokeWidth=1;html=1;shape=mxgraph.flowchart.terminator;whiteSpace=wrap;" vertex="1" parent="2pj6zwEHegQCQvlmWKqd-4">
          <mxGeometry x="25" y="80" width="60" height="30" as="geometry" />
        </mxCell>
        <mxCell id="2pj6zwEHegQCQvlmWKqd-26" style="edgeStyle=orthogonalEdgeStyle;rounded=0;orthogonalLoop=1;jettySize=auto;html=1;" edge="1" parent="2pj6zwEHegQCQvlmWKqd-4" source="2pj6zwEHegQCQvlmWKqd-12" target="2pj6zwEHegQCQvlmWKqd-25">
          <mxGeometry relative="1" as="geometry" />
        </mxCell>
        <mxCell id="2pj6zwEHegQCQvlmWKqd-12" value="完成登录" style="strokeWidth=1;html=1;shape=mxgraph.flowchart.terminator;whiteSpace=wrap;" vertex="1" parent="2pj6zwEHegQCQvlmWKqd-4">
          <mxGeometry x="25" y="130" width="60" height="30" as="geometry" />
        </mxCell>
        <mxCell id="2pj6zwEHegQCQvlmWKqd-25" value="打开应用" style="strokeWidth=1;html=1;shape=mxgraph.flowchart.terminator;whiteSpace=wrap;" vertex="1" parent="2pj6zwEHegQCQvlmWKqd-4">
          <mxGeometry x="25" y="190" width="60" height="30" as="geometry" />
        </mxCell>
        <mxCell id="2pj6zwEHegQCQvlmWKqd-6" value="教育号" style="swimlane;startSize=20;html=1;" vertex="1" parent="2pj6zwEHegQCQvlmWKqd-1">
          <mxGeometry x="360" y="20" width="120" height="310" as="geometry" />
        </mxCell>
        <mxCell id="2pj6zwEHegQCQvlmWKqd-9" value="登录" style="strokeWidth=1;html=1;shape=mxgraph.flowchart.terminator;whiteSpace=wrap;" vertex="1" parent="2pj6zwEHegQCQvlmWKqd-6">
          <mxGeometry x="30" y="80" width="60" height="30" as="geometry" />
        </mxCell>
        <mxCell id="2pj6zwEHegQCQvlmWKqd-10" style="edgeStyle=orthogonalEdgeStyle;rounded=0;orthogonalLoop=1;jettySize=auto;html=1;entryX=0;entryY=0.5;entryDx=0;entryDy=0;entryPerimeter=0;dashed=1;" edge="1" parent="2pj6zwEHegQCQvlmWKqd-1" source="2pj6zwEHegQCQvlmWKqd-8" target="2pj6zwEHegQCQvlmWKqd-9">
          <mxGeometry relative="1" as="geometry" />
        </mxCell>
        <mxCell id="2pj6zwEHegQCQvlmWKqd-13" style="edgeStyle=orthogonalEdgeStyle;rounded=0;orthogonalLoop=1;jettySize=auto;html=1;entryX=1;entryY=0.5;entryDx=0;entryDy=0;entryPerimeter=0;exitX=0.5;exitY=1;exitDx=0;exitDy=0;exitPerimeter=0;" edge="1" parent="2pj6zwEHegQCQvlmWKqd-1" source="2pj6zwEHegQCQvlmWKqd-9" target="2pj6zwEHegQCQvlmWKqd-12">
          <mxGeometry relative="1" as="geometry" />
        </mxCell>
        <mxCell id="2pj6zwEHegQCQvlmWKqd-27" style="edgeStyle=orthogonalEdgeStyle;rounded=0;orthogonalLoop=1;jettySize=auto;html=1;" edge="1" parent="2pj6zwEHegQCQvlmWKqd-1" source="2pj6zwEHegQCQvlmWKqd-25" target="2pj6zwEHegQCQvlmWKqd-14">
          <mxGeometry relative="1" as="geometry" />
        </mxCell>
        <mxCell id="2pj6zwEHegQCQvlmWKqd-29" value="code&lt;br&gt;state" style="edgeLabel;html=1;align=center;verticalAlign=middle;resizable=0;points=[];" vertex="1" connectable="0" parent="2pj6zwEHegQCQvlmWKqd-27">
          <mxGeometry x="-0.1061" relative="1" as="geometry">
            <mxPoint as="offset" />
          </mxGeometry>
        </mxCell>
        <mxCell id="2pj6zwEHegQCQvlmWKqd-28" style="edgeStyle=orthogonalEdgeStyle;rounded=0;orthogonalLoop=1;jettySize=auto;html=1;" edge="1" parent="2pj6zwEHegQCQvlmWKqd-1" source="2pj6zwEHegQCQvlmWKqd-14" target="2pj6zwEHegQCQvlmWKqd-19">
          <mxGeometry relative="1" as="geometry" />
        </mxCell>
      </root>
    </mxGraphModel>
  </diagram>
</mxfile>
